<?xml version="1.0" encoding="utf-8"?>
<!-- Generator: Adobe Illustrator 23.1.1, SVG Export Plug-In . SVG Version: 6.00 Build 0)  -->
<svg version="1.1" id="Capa_1" xmlns="http://www.w3.org/2000/svg" xmlns:xlink="http://www.w3.org/1999/xlink" x="0px" y="0px"
	 viewBox="0 0 249.2 248.1" style="enable-background:new 0 0 249.2 248.1;" xml:space="preserve">
<style type="text/css">
	.st0{fill:#FF7600;stroke:#153D4B;stroke-width:12;stroke-miterlimit:10;}
	.st1{fill:#FFFFFF;}
	.st2{fill:#354955;}
	.st3{fill:#354955;stroke:#354955;stroke-width:2;stroke-miterlimit:10;}
</style>
<circle class="st0" cx="124.6" cy="124.1" r="117.8"/>
<g>
	<g>
		<path class="st1" d="M85.6,54.3l17.2-4.8c0.9-0.3,1.9-0.1,2.7,0.4l26.5,17.8c0.9,0.6,1.4,1.6,1.4,2.7v22c0,2.3,2.3,3.9,4.5,3
			l9.7-4c1-0.4,2.1-0.3,3,0.3l18.1,12.2c0.9,0.6,1.4,1.6,1.4,2.6c0,0,1.6,87.4,1.6,87.4c0.1,2.8-2.5,3.3-4.7,3.3
			c-15.4,0-30.8,0-46.1,0c-10.9,0-21.8,0-32.7,0c-0.6,0-1.2,0-1.8,0c-1.8,0-3.2-1.4-3.2-3.2V57.6v-0.2
			C83.2,55.9,84.2,54.6,85.6,54.3z"/>
		<path class="st2" d="M155.8,200.1c2,0,4-0.1,6.1-0.2c2.4-0.1,4.9-0.5,7.1-1.6c3.8-2.1,4.7-6.6,5-10.6c0.2-3.1-0.1-6.3-0.1-9.4
			v-74.1c0-1.1-0.6-2.1-1.5-2.7L151.6,88c-0.7-0.5-1.7-0.6-2.5-0.4l-7.9,1.9c-2,0.5-4-1-4-3.1l0-18.3c0-1.1-0.6-2.1-1.5-2.7
			l-28.9-18.5c-0.7-0.5-1.7-0.6-2.5-0.4l-21.2,5.2c-1.4,0.4-2.5,1.6-2.5,3.1v115.1c0,4.2,0,8.4,0,12.5c0,4.5-0.5,9.6,1.8,13.6
			c2.2,3.9,5.8,4.2,9.8,4.1c2.9-0.1,5.8-0.1,8.7-0.1c10,0,20,0,30,0c7.1,0,14.1,0.1,21.2,0.1C153.3,200.1,154.6,200.1,155.8,200.1z
			 M101.3,190.4c0,1.8-1.4,3.2-3.2,3.2l-7.9,0c-1.8,0-3.2-1.4-3.2-3.2V59.7c0-1.5,1-2.8,2.5-3.1l7.9-1.9c2-0.5,4,1,4,3.1V190.4z
			 M118.1,84h12.7v8.7h-12.7v9.2h12.7v8.7h-12.7v9.2h12.7v8.7h-12.7v9.2h12.7v8.7h-12.6c0,0,0,0,0,0v9.2h9.4c1.8,0,3.2,1.4,3.2,3.2
			v31.3c0,1.8-1.4,3.2-3.2,3.2h-16.7c-1.8,0-3.2-1.4-3.2-3.2V60.8c0-2.6,2.8-4.1,5-2.7l16.6,10.6c0.8,0.5,1.4,1.3,1.5,2.2
			c0.4,2-1.2,3.8-3.2,3.8h-9.4V84z M145.5,190.4c0,1.8-1.4,3.2-3.2,3.2h-1.3c-1.8,0-3.2-1.4-3.2-3.2V99.4c0-1.5,1-2.8,2.5-3.1
			l1.3-0.3c2-0.5,4,1,4,3.1V190.4z M151.8,101.6c0-2.6,2.8-4.1,5-2.7l9.2,5.9c0.9,0.6,1.5,1.6,1.5,2.7v2.1c0,1.8-1.4,3.2-3.2,3.2
			h-5.5v9.2h8.7v8.7h-8.7v9.2h8.7v8.7h-8.7v9.2h8.7v8.7h-8.7v9.2h5.5c1.8,0,3.2,1.4,3.2,3.2v11.1c0,1.8-1.4,3.2-3.2,3.2h-9.2
			c-1.8,0-3.2-1.4-3.2-3.2V101.6z"/>
	</g>
	<g>
		<path class="st3" d="M73.7,198.6c1.4,0.9,1.7,2.8,0.8,4.2c-0.3,0.5-0.7,0.8-1.2,1c-0.9,0.4-2.1,0.4-3-0.2
			c-17-11.6-29.6-27.9-36.5-47.3c-8.6-24.2-7.2-50.4,3.8-73.6s30.5-40.7,54.7-49.3c16.3-5.8,33.5-7.1,50.3-3.8l-5-5.7
			c-1.1-1.2-1-3.1,0.3-4.2c1.2-1.1,3.1-1,4.2,0.3l11.4,12.9c0.6,0.7,0.9,1.6,0.7,2.5c-0.2,0.9-0.7,1.7-1.6,2.1l-15.2,8
			c0,0-0.1,0-0.1,0c-1.5,0.7-3.2,0.1-4-1.3c-0.8-1.5-0.2-3.3,1.3-4.1l8.3-4.3c-16.1-3.4-32.8-2.2-48.5,3.3
			c-22.7,8.1-40.9,24.5-51.3,46.3c-10.4,21.8-11.6,46.3-3.6,69C46,172.4,57.8,187.8,73.7,198.6L73.7,198.6z"/>
		<path class="st3" d="M215.3,91.9c8.6,24.2,7.2,50.4-3.8,73.6c-9.6,20.1-25.4,35.9-45.2,45.4c-3.1,1.5-6.2,2.8-9.5,3.9
			c-16.2,5.8-33.5,7.1-50.3,3.8l5,5.7c1.1,1.2,1,3.1-0.3,4.2c-0.2,0.2-0.4,0.3-0.7,0.5c-1.2,0.6-2.6,0.3-3.6-0.7l-11.4-12.9
			c-0.6-0.7-0.9-1.6-0.7-2.5s0.7-1.7,1.6-2.1l15.2-8c1.5-0.8,3.3-0.2,4.1,1.3c0.8,1.5,0.2,3.3-1.3,4.1l-8.3,4.3
			c16.1,3.4,32.8,2.2,48.5-3.3c46.9-16.6,71.5-68.3,54.9-115.2c-6.5-18.2-18.3-33.5-34.2-44.4c-1.4-0.9-1.7-2.8-0.8-4.2
			c0.9-1.4,2.8-1.7,4.2-0.8C195.8,56.1,208.4,72.4,215.3,91.9L215.3,91.9z"/>
	</g>
</g>
</svg>
