<svg id="Capa_1" data-name="Capa 1" xmlns="http://www.w3.org/2000/svg" viewBox="0 0 600 600"><defs><style>.cls-1{fill:#ff7500;stroke:#3e4f5b;stroke-miterlimit:10;stroke-width:11.33px;}.cls-2{fill:#fff;}.cls-3{fill:#3e4f5b;}</style></defs><title>TouchID</title><circle class="cls-1" cx="300" cy="300" r="292"/><rect class="cls-2" x="178" y="108" width="246" height="398.61" rx="12" ry="12"/><path class="cls-3" d="M399,97H201a35,35,0,0,0-35,35V484a35,35,0,0,0,35,35H399a35,35,0,0,0,35-35V132A35,35,0,0,0,399,97Zm21,387a21,21,0,0,1-21,21H201a21,21,0,0,1-21-21V449H420Zm0-49H180V153H420Zm0-296H180v-7a21,21,0,0,1,21-21H399a21,21,0,0,1,21,21Z"/><path class="cls-3" d="M300,456a21,21,0,1,0,21,21A21,21,0,0,0,300,456Zm0,28a7,7,0,1,1,7-7A7,7,0,0,1,300,484Z"/><path class="cls-3" d="M307,118H293a7,7,0,1,0,0,14h14a7,7,0,0,0,0-14Z"/><path class="cls-3" d="M357,251l5-7,35-35c3-3,5-4,9-3a8,8,0,0,1,5,13l-2,2-21,21H498a51,51,0,0,1,20,4c15,6,25,17,30,33s1,34-12,48a47,47,0,0,1-28,15H427a8,8,0,0,1-5-9,8,8,0,0,1,8-7h70c15,0,27-9,32-22s-7-42-29-44H385l2,2,21,21c4,4,4,10,0,13a8,8,0,0,1-10,0l-2-2-34-34-5-7Q357,253,357,251Z"/><path class="cls-3" d="M244,379l-5,7-35,35c-3,3-5,4-9,3a8,8,0,0,1-5-13l2-2,21-21H102a51,51,0,0,1-20-4c-15-6-25-17-30-33s-1-34,12-48a47,47,0,0,1,28-15h80a8,8,0,0,1,5,9,8,8,0,0,1-8,7H101c-15,0-27,9-32,22s7,42,29,44H215l-2-2-21-21c-4-4-4-10,0-13a8,8,0,0,1,10,0l2,2,34,34,5,7Q244,377,244,379Z"/></svg>