<?xml version="1.0" encoding="utf-8"?>
<!-- Generator: Adobe Illustrator 24.2.3, SVG Export Plug-In . SVG Version: 6.00 Build 0)  -->
<svg version="1.1" id="Layer_1" xmlns="http://www.w3.org/2000/svg" xmlns:xlink="http://www.w3.org/1999/xlink" x="0px" y="0px"
	 viewBox="0 0 179.3 205.3" style="enable-background:new 0 0 179.3 205.3;" xml:space="preserve">
<style type="text/css">
	.st0{fill:#FF7500;}
	.st1{fill:#053C48;}
	.st2{fill:#FFFFFF;}
</style>
<g>
	<path class="st0" d="M159,186H20.4c-7.7,0-14-6.3-14-14V33.4c0-7.7,6.3-14,14-14H159c7.7,0,14,6.3,14,14V172
		C173,179.7,166.7,186,159,186z"/>
	<g>
		<path class="st1" d="M92.5,37c-26,0-47,21.1-47,47s47,85.9,47,85.9s47-59.9,47-85.9S118.5,37,92.5,37z M92.5,106.8
			c-12.6,0-22.8-10.2-22.8-22.8c0-12.6,10.2-22.8,22.8-22.8s22.8,10.2,22.8,22.8C115.4,96.6,105.2,106.8,92.5,106.8z"/>
		<circle class="st2" cx="92.5" cy="84" r="22.8"/>
	</g>
</g>
</svg>
