<?xml version="1.0" encoding="utf-8"?>
<!-- Generator: Adobe Illustrator 24.2.3, SVG Export Plug-In . SVG Version: 6.00 Build 0)  -->
<svg version="1.1" id="Capa_9" xmlns="http://www.w3.org/2000/svg" xmlns:xlink="http://www.w3.org/1999/xlink" x="0px" y="0px"
	 viewBox="0 0 287.5 302.8" style="enable-background:new 0 0 287.5 302.8;" xml:space="preserve">
<style type="text/css">
	.st0{fill-rule:evenodd;clip-rule:evenodd;fill:#FF7500;}
	.st1{fill:#053C48;}
	.st2{fill:#FFFFFF;}
	.st3{fill:none;stroke:#FFFFFF;stroke-width:5;stroke-miterlimit:10;}
</style>
<g>
	<ellipse class="st0" cx="140.6" cy="153.5" rx="116.9" ry="116.9"/>
	<path class="st1" d="M140.6,24.5C70.7,24.5,14,81.2,14,151.1s56.7,126.5,126.5,126.5c69.9,0,126.5-56.7,126.5-126.5
		S210.4,24.5,140.6,24.5z M140.6,265.6C77.3,265.6,26,214.4,26,151.1S77.3,36.5,140.6,36.5S255.1,87.8,255.1,151
		C255.1,214.4,203.8,265.6,140.6,265.6z"/>
</g>
<g>
	<path class="st2" d="M80.4,200.5c-1.3-0.6-1.9-1.8-1.3-3s1.3-6.5,2.5-9.5c0.8-1.6,2.1-2.8,3.8-3.6c1.9-0.6,3.8-0.6,5.7,0
		c2.9,1,5.3,2.9,6.9,5.4l1.9,3c0.6,1.2,0.6,2.4,0,3c-0.7,0.7-1.9,0.8-2.7,0.1c-0.2-0.2-0.4-0.4-0.5-0.7L93,191
		c-0.9-1.3-2.2-2.4-3.8-3c-1.9-0.6-2.5,0-3.1,1.2s-1.9,4.2-1.9,6.5v1.8c-0.1,1.1-0.9,2-1.9,2.4L80.4,200.5z"/>
	<path class="st2" d="M84.2,126.8c9.4,0,17,3,23.3,10.1c1.9,2.3,3.4,4.9,4.4,7.7v1.2l12.6,10.1l1.3,1.8c0.3,0.9-0.2,1.9-1.2,2.2
		c-0.7,0.2-1.4,0-1.9-0.5H122l-13.2-10.7l-1.3-2.4c-3.1-7.7-8.8-13.1-17.6-14.9c-8.8-1.8-23.3,3.6-27.1,13.7
		c-3.8,10.1-1.9,10.7-0.6,16.1c1.3,5.4,1.3,8.3-0.6,11.9c-1.8,3.4-5,6-8.8,7.1c-1.3,0.6-2.5,0-3.1-1.2s0-2.4,1.9-3s5.7-3.6,6.9-7.1
		c0.7-2.5,0.7-5.2,0-7.7c-0.6-3.6-1.9-7.1-1.3-10.1c0.4-6.8,3.5-13.2,8.8-17.8c4-3.7,9-6.2,14.5-7.1L84.2,126.8z"/>
	<path class="st2" d="M72.8,170.2c0,3-0.6,6.5-1.9,9.5s-3.8,5.4-7.6,7.1l-3.8,1.2c-0.8,0.7-2,0.6-2.7-0.1c-0.3-0.3-0.4-0.7-0.5-1.1
		c-0.1-1,0.4-1.9,1.3-2.4l5-2.4c3.1-1.8,4.4-4.2,4.4-7.1s0-8.3-0.6-11.9c-0.6-3.6-1.3-5.9-1.3-9.5s6.9-16.6,15.7-18.4
		s18.9,3.6,22,11.9c1,2.8,2.7,5.2,5,7.1l14.5,11.9c0.6,0.6,1.3,1.2,1.3,1.8c0.3,0.9-0.2,1.9-1.2,2.2c-0.7,0.2-1.4,0-1.9-0.5h-0.6
		c-5.7-4.2-11.3-8.3-16.4-13.1c-2.3-2.2-4-4.8-5-7.7c-1.9-5.9-8.2-9.5-14.5-9.5c-6.8,0.1-12.8,4.5-14.5,10.7c-1.3,3-0.6,6.5,0,9.5
		C70.3,162.4,72.2,166.6,72.8,170.2z"/>
	<path class="st2" d="M74.7,154.1c0-4.8,3.1-8.9,8.2-10.1c4.7-1.1,9.6,0.8,12,4.8v1.2c1.3,4.2,4.4,7.7,7.6,10.7
		c3.1,3,10.1,8.9,15.7,13.1h0.6c1.3,0.6,1.3,1.8,0.6,3c-0.6,0.8-1.7,1-2.6,0.5c-0.2-0.1-0.4-0.3-0.5-0.5l-5.7-4.2
		c-5-4.2-10.1-8.3-14.5-13.1c-2.5-2.6-4.4-5.6-5.7-8.9c-0.8-2.4-3-4-5.7-4.2c-2.5-0.3-5,0.9-6.3,3c-1.1,1.6-1.3,3.6-0.6,5.4
		c1.9,4.8,4.4,8.9,8.2,13.1c3.8,4.2,12,11.3,18.9,16.6l2.5,1.8c1.3,1.2,1.3,2.4,0.6,3c-0.6,0.6-1.9,1.2-3.1,0
		c-1.3-1.2-14.5-11.3-20.8-17.8s-6.9-8.3-9.4-13.7C72.2,152.3,74.7,155.9,74.7,154.1z"/>
	<path class="st2" d="M48.3,151.1c0.5-6.9,3.1-13.5,7.6-19c5-6.6,12.4-11.2,20.8-13.1c8.8-2.4,17.6-1.8,26.5,2.4
		c4.6,2.2,8.5,5.5,11.3,9.5L122,141c1.1,1.6,2.6,2.8,4.4,3.6c1.3,0.6,1.9,1.8,1.3,3s-1.9,1.2-3.1,1.2c-1.3,0-4.4-3-6.3-5.4
		l-6.9-10.1c-3.8-5.4-9.4-8.9-16.4-10.7c-6.9-1.8-18.3-0.6-26.5,4.2c-7,4.2-12,10.8-13.9,18.4c-0.3,2-0.5,4-0.6,5.9v1.8
		c0.1,1-0.7,1.8-1.8,1.9c-0.3,0-0.5,0-0.7-0.1c-1,0-1.9-0.8-1.9-1.8l0,0C48.3,152.9,48.3,151.7,48.3,151.1z"/>
	<path class="st2" d="M118.2,123.8c0,1.2-0.6,1.8-1.3,2.4h-2.5c-6.3-7.1-14.5-9.5-23.9-11.3c-7.6-1.1-15.5-0.3-22.7,2.4
		c-5,1.8-9.4,4.8-13.2,8.9c-3.8,4.2-2.5,1.2-3.1,0.6s-1.3-1.8,0-3s7.6-6.5,12-8.9s15.7-4.8,24.6-4.2c8,0.4,15.8,2.7,22.7,6.5
		c2.6,1.4,5,3.2,6.9,5.4L118.2,123.8z"/>
	<path class="st2" d="M82.9,101.8c8.8-0.6,17,1.2,24.6,4.2c1.3,0.6,1.9,1.2,1.9,2.4c0,1.2-1.3,2.4-3.1,1.8l-6.9-2.4
		c-4.7-1.3-9.6-1.9-14.5-1.8h-9.4c-2.9,0.2-5.7,1.1-8.2,2.4l-2.5,1.2c-0.7,0.7-1.9,0.8-2.7,0.1c-0.2-0.2-0.4-0.4-0.5-0.7
		c-0.7-0.7-0.6-1.9,0.1-2.5c0.3-0.3,0.7-0.4,1.1-0.5c4.4-2.4,9.4-4.2,14.5-4.2H82.9z"/>
	<path class="st2" d="M83.5,153.5c0-0.8,0.5-1.5,1.3-1.8h2.5c1.3,4.2,3.8,7.7,6.9,10.7s10.7,9.5,16.4,13.7l4.4,3.6
		c0.9,0.5,1.1,1.7,0.5,2.5c-0.1,0.2-0.3,0.4-0.5,0.5c-0.4,0.9-1.5,1.4-2.4,1c-0.3-0.1-0.5-0.3-0.7-0.5c-6.9-5.4-13.9-10.1-20.2-16.1
		s-6.9-8.3-8.8-13.1l0,0L83.5,153.5z"/>
	<path class="st2" d="M79.8,177.3c-0.6,6.5-1.9,11.9-6.3,16.1l-4.4,3c-1,0.1-2-0.3-2.5-1.2c-0.4-0.9,0.1-2,1.1-2.3
		c0.1,0,0.1,0,0.2-0.1c3.8-1.8,5.7-4.8,6.9-7.7c1.3-3,1.9-5.9,1.3-8.9v-1.8c-0.3-0.9,0.2-1.9,1.1-2.3c0.2-0.1,0.5-0.1,0.7-0.1
		c1-0.3,2.1,0.2,2.4,1.1c0.1,0.2,0.1,0.5,0.1,0.7L79.8,177.3z"/>
	<path class="st2" d="M124.5,139.3l-1.9-1.2l-4.4-8.3c-0.8-0.7-0.8-1.8-0.1-2.5c0.2-0.2,0.4-0.4,0.7-0.5c0.7-0.7,1.9-0.8,2.7-0.1
		c0.2,0.2,0.4,0.4,0.5,0.7l4.4,8.9C127.6,137.5,126.4,138.7,124.5,139.3z"/>
	<path class="st2" d="M52.7,169.6l-1.9-1.2c-1.2-2-2.1-4.2-2.5-6.5c-0.3-0.9,0.2-1.9,1.1-2.3c0.2-0.1,0.5-0.1,0.7-0.1
		c1-0.3,2.1,0.2,2.4,1.1c0.1,0.2,0.1,0.5,0.1,0.7l1.9,5.4C55.2,168.4,54.6,169.6,52.7,169.6z"/>
</g>
<g>
	<g>
		<g>
			<g>
				<path class="st2" d="M155.7,133.4c-1.5,0-2.7-1.2-2.7-2.7v-7.8c0-8.9,7.2-16.1,16.1-16.1h7.6c1.5,0,2.7,1.2,2.7,2.7
					s-1.2,2.7-2.7,2.7H169c-5.9,0-10.6,4.8-10.6,10.6v7.8C158.4,132.2,157.2,133.4,155.7,133.4z"/>
			</g>
			<g>
				<path class="st2" d="M238.4,133.4c-1.5,0-2.7-1.2-2.7-2.7v-7.8c0-5.9-4.8-10.6-10.6-10.6h-7.6c-1.5,0-2.7-1.2-2.7-2.7
					s1.2-2.7,2.7-2.7h7.6c8.9,0,16.1,7.2,16.1,16.1v7.8C241.1,132.2,239.9,133.4,238.4,133.4z"/>
			</g>
		</g>
		<g>
			<g>
				<path class="st2" d="M176.6,195.4H169c-8.9,0-16.1-7.2-16.1-16.1v-7.8c0-1.5,1.2-2.7,2.7-2.7s2.7,1.2,2.7,2.7v7.8
					c0,5.9,4.8,10.6,10.6,10.6h7.6c1.5,0,2.7,1.2,2.7,2.7S178.1,195.4,176.6,195.4z"/>
			</g>
			<g>
				<path class="st2" d="M225,195.4h-7.6c-1.5,0-2.7-1.2-2.7-2.7s1.2-2.7,2.7-2.7h7.6c5.9,0,10.6-4.8,10.6-10.6v-7.8
					c0-1.5,1.2-2.7,2.7-2.7s2.7,1.2,2.7,2.7v7.8C241.1,188.2,233.9,195.4,225,195.4z"/>
			</g>
		</g>
	</g>
</g>
<line class="st3" x1="140.6" y1="36.4" x2="140.6" y2="265.5"/>
<g>
	<path class="st2" d="M185.5,145.8h-0.7c-1.8,0-3.3-1.5-3.3-3.3v-12c0-1.8,1.5-3.3,3.3-3.3h0.7c1.8,0,3.3,1.5,3.3,3.3v12
		C188.8,144.3,187.3,145.8,185.5,145.8z"/>
	<path class="st2" d="M207.6,145.8h-0.7c-1.8,0-3.3-1.5-3.3-3.3v-12c0-1.8,1.5-3.3,3.3-3.3h0.7c1.8,0,3.3,1.5,3.3,3.3v12
		C211,144.3,209.5,145.8,207.6,145.8z"/>
	<g>
		<g>
			<path class="st2" d="M197,179c-9.4,0-17.9-5.5-21.7-14.1c-0.7-1.6,0-3.5,1.6-4.2c1.6-0.7,3.5,0,4.2,1.6c2.8,6.2,9,10.2,15.9,10.2
				s13-4,15.9-10.2c0.7-1.6,2.6-2.3,4.2-1.6c1.6,0.7,2.3,2.6,1.6,4.2C214.9,173.5,206.4,179,197,179z"/>
		</g>
	</g>
</g>
</svg>
