<?xml version="1.0" encoding="utf-8"?>
<!-- Generator: Adobe Illustrator 24.2.3, SVG Export Plug-In . SVG Version: 6.00 Build 0)  -->
<svg version="1.1" id="Capa_9" xmlns="http://www.w3.org/2000/svg" xmlns:xlink="http://www.w3.org/1999/xlink" x="0px" y="0px"
	 viewBox="0 0 287.5 302.8" style="enable-background:new 0 0 287.5 302.8;" xml:space="preserve">
<style type="text/css">
	.st0{fill-rule:evenodd;clip-rule:evenodd;fill:#FF7500;}
	.st1{fill:#053C48;}
	.st2{fill:#FFFFFF;}
	.st3{fill:#053C48;stroke:#053C48;stroke-width:4;stroke-miterlimit:10;}
	.st4{fill:#053C48;stroke:#053C48;stroke-width:3;stroke-miterlimit:10;}
</style>
<g>
	
		<ellipse transform="matrix(0.9875 -0.1579 0.1579 0.9875 -22.4721 24.6218)" class="st0" cx="143.8" cy="153.8" rx="116.9" ry="116.9"/>
	<path class="st1" d="M143.8,24.9c-69.9,0-126.5,56.7-126.5,126.5s56.7,126.5,126.5,126.5c69.9,0,126.5-56.7,126.5-126.5
		S213.6,24.9,143.8,24.9z M143.8,265.9c-63.3,0-114.5-51.3-114.5-114.5c0-63.3,51.3-114.5,114.5-114.5
		c63.3,0,114.5,51.3,114.5,114.5C258.3,214.7,207,265.9,143.8,265.9z"/>
</g>
<g>
	<path class="st2" d="M100,71.9h88.3c2.6,0,4.8,2.1,4.8,4.8v149c0,2.6-2.1,4.8-4.8,4.8H100c-2.6,0-4.8-2.1-4.8-4.8v-149
		C95.2,74,97.4,71.9,100,71.9z"/>
	<path class="st3" d="M183.1,67.5h-78.8c-7.7,0-13.9,6.2-13.9,13.9l0,0v140c0,7.7,6.2,13.9,13.9,13.9l0,0h78.8
		c7.7,0,13.9-6.2,13.9-13.9l0,0v-140C197.1,73.7,190.8,67.5,183.1,67.5L183.1,67.5z M191.5,221.4c0,4.6-3.7,8.4-8.4,8.4l0,0h-78.8
		c-4.6,0-8.4-3.7-8.4-8.4l0,0v-13.9h95.5V221.4z M191.5,201.9H96V89.8h95.5V201.9z M191.5,84.2H96v-2.8c0-4.6,3.7-8.4,8.4-8.4h78.8
		c4.6,0,8.4,3.7,8.4,8.4V84.2z"/>
	<path class="st1" d="M143.8,210.3c-4.6,0-8.4,3.7-8.4,8.4s3.7,8.4,8.4,8.4s8.4-3.7,8.4-8.4S148.4,210.3,143.8,210.3L143.8,210.3z
		 M143.8,221.4c-1.5,0-2.8-1.2-2.8-2.8c0-1.5,1.2-2.8,2.8-2.8c1.5,0,2.8,1.2,2.8,2.8C146.5,220.2,145.3,221.4,143.8,221.4
		L143.8,221.4z"/>
	<path class="st1" d="M146.5,75.8H141c-1.5,0-2.8,1.2-2.8,2.8s1.2,2.8,2.8,2.8h5.6c1.5,0,2.8-1.2,2.8-2.8S148.1,75.8,146.5,75.8z"/>
	<path class="st4" d="M166.4,128.7l2-2.8l13.9-13.9c1.2-1.2,2-1.6,3.6-1.2c1.7,0.3,2.9,1.9,2.7,3.6c-0.1,0.6-0.3,1.1-0.7,1.6
		l-0.8,0.8l-8.4,8.4h43.8c2.7,0,5.4,0.5,8,1.6c6,2.4,9.9,6.8,11.9,13.1c2,6.4,0.4,13.5-4.8,19.1c-2.9,3.2-6.8,5.3-11.1,6h-32.2
		c-1.4-0.6-2.3-2.1-2-3.6c0.2-1.6,1.6-2.8,3.2-2.8h27.8c6,0,10.7-3.6,12.7-8.8c2-5.2-2.8-16.7-11.5-17.5h-46.9l0.8,0.8l8.4,8.4
		c1.6,1.6,1.6,4,0,5.2c-1.2,0.9-2.8,0.9-4,0l-0.8-0.8l-13.5-13.5l-2-2.8C166.4,129.5,166.4,129.3,166.4,128.7z"/>
	<path class="st4" d="M121.5,179.6l-2,2.8l-13.9,13.9c-1.2,1.2-2,1.6-3.6,1.2c-1.7-0.3-2.9-1.9-2.7-3.6c0.1-0.6,0.3-1.1,0.7-1.6
		l0.8-0.8l8.4-8.4H65c-2.7,0-5.4-0.5-8-1.6c-6-2.4-9.9-6.8-11.9-13.1c-2-6.4-0.4-13.5,4.8-19.1c2.9-3.2,6.8-5.3,11.1-6h31.8
		c1.4,0.6,2.3,2.1,2,3.6c-0.2,1.6-1.6,2.8-3.2,2.8h-27c-6,0-10.7,3.6-12.7,8.8c-2,5.2,2.8,16.7,11.5,17.5h46.5l-0.8-0.8l-8.4-8.4
		c-1.6-1.6-1.6-4,0-5.2c1.2-0.9,2.8-0.9,4,0l0.8,0.8l13.5,13.5l2,2.8C121.3,178.8,121.5,179.1,121.5,179.6z"/>
</g>
</svg>
