<svg id="Capa_1" data-name="Capa 1" xmlns="http://www.w3.org/2000/svg" viewBox="0 0 600 600"><defs><style>.cls-1{fill:#ff7500;stroke:#3e4f5b;stroke-miterlimit:10;stroke-width:11.33px;}.cls-2{fill:#fff;}.cls-3{fill:#3e4f5b;}</style></defs><title>TouchID</title><circle class="cls-1" cx="300" cy="300" r="292"/><path class="cls-2" d="M200,317c-2-1-3-3-2-5s2-11,4-16a13,13,0,0,1,6-6c3-1,6-1,9,0a22,22,0,0,1,11,9l3,5c1,2,1,4,0,5a3,3,0,0,1-5-1l-6-7a13,13,0,0,0-6-5c-3-1-4,0-5,2s-3,7-3,11v3a5,5,0,0,1-3,4Z"/><path class="cls-2" d="M206,193c15,0,27,5,37,17a45,45,0,0,1,7,13v2l20,17,2,3a3,3,0,0,1-5,3h-1l-21-18-2-4c-5-13-14-22-28-25s-37,6-43,23-3,18-1,27,2,14-1,20a23,23,0,0,1-14,12c-2,1-4,0-5-2s0-4,3-5,9-6,11-12a25,25,0,0,0,0-13c-1-6-3-12-2-17a44,44,0,0,1,14-30,44,44,0,0,1,23-12Z"/><path class="cls-2" d="M188,266c0,5-1,11-3,16s-6,9-12,12l-6,2a3,3,0,0,1-5-2,4,4,0,0,1,2-4l8-4c5-3,7-7,7-12s0-14-1-20-2-10-2-16,11-28,25-31,30,6,35,20a27,27,0,0,0,8,12l23,20c1,1,2,2,2,3a3,3,0,0,1-5,3h-1c-9-7-18-14-26-22a34,34,0,0,1-8-13c-3-10-13-16-23-16a24,24,0,0,0-23,18c-2,5-1,11,0,16S187,260,188,266Z"/><path class="cls-2" d="M191,239c0-8,5-15,13-17a17,17,0,0,1,19,8v2c2,7,7,13,12,18s16,15,25,22h1c2,1,2,3,1,5a3,3,0,0,1-5,0l-9-7c-8-7-16-14-23-22a47,47,0,0,1-9-15,10,10,0,0,0-9-7,10,10,0,0,0-10,5,10,10,0,0,0-1,9c3,8,7,15,13,22s19,19,30,28l4,3c2,2,2,4,1,5s-3,2-5,0-23-19-33-30-11-14-15-23S191,242,191,239Z"/><path class="cls-2" d="M149,234a59,59,0,0,1,12-32,57,57,0,0,1,33-22c14-4,28-3,42,4a48,48,0,0,1,18,16l12,17a16,16,0,0,0,7,6c2,1,3,3,2,5s-3,2-5,2-7-5-10-9l-11-17c-6-9-15-15-26-18s-29-1-42,7a50,50,0,0,0-22,31,94,94,0,0,0-1,10v3a3,3,0,0,1-4,3,3,3,0,0,1-3-3C149,237,149,235,149,234Z"/><path class="cls-2" d="M260,188c0,2-1,3-2,4h-4c-10-12-23-16-38-19a69,69,0,0,0-36,4c-8,3-15,8-21,15s-4,2-5,1-2-3,0-5,12-11,19-15,25-8,39-7a80,80,0,0,1,36,11,42,42,0,0,1,11,9Z"/><path class="cls-2" d="M204,151c14-1,27,2,39,7,2,1,3,2,3,4s-2,4-5,3l-11-4a73,73,0,0,0-23-3H192a33,33,0,0,0-13,4l-4,2a3,3,0,0,1-5-1,3,3,0,0,1,2-5c7-4,15-7,23-7Z"/><path class="cls-2" d="M205,238a3,3,0,0,1,2-3h4c2,7,6,13,11,18s17,16,26,23l7,6a3,3,0,0,1,0,5,3,3,0,0,1-5,1c-11-9-22-17-32-27s-11-14-14-22h0Z"/><path class="cls-2" d="M199,278c-1,11-3,20-10,27l-7,5a4,4,0,0,1-4-2,3,3,0,0,1,2-4c6-3,9-8,11-13s3-10,2-15v-3a3,3,0,0,1,3-4,3,3,0,0,1,4,3Z"/><path class="cls-2" d="M270,214l-3-2-7-14a3,3,0,0,1,1-5,3,3,0,0,1,5,1l7,15C275,211,273,213,270,214Z"/><path class="cls-2" d="M156,265l-3-2a35,35,0,0,1-4-11,3,3,0,0,1,3-4,3,3,0,0,1,4,3l3,9C160,263,159,265,156,265Z"/><path class="cls-2" d="M454,383a18,18,0,0,0-15-18V310a21,21,0,0,0-28-20l-20-7a81,81,0,0,0-48-2c-20,6-32,18-34,35l-4,7-2,5a6,6,0,0,0,9,6l2-2v32a18,18,0,0,0,1,36,63,63,0,0,0,17,33,61,61,0,0,0,44,18h0a62,62,0,0,0,61-51A18,18,0,0,0,454,383Zm-28-85a14,14,0,0,1,7,12v43a21,21,0,0,1-18-21V296A14,14,0,0,1,426,298ZM311,327v-2a18,18,0,0,1,25-11,25,25,0,0,0,29-6h1a3,3,0,0,0-5-4h-1a18,18,0,0,1-21,4,25,25,0,0,0-20,0h-2c4-10,13-17,27-21a75,75,0,0,1,44,1l19,7v17a58,58,0,0,1-78,14A18,18,0,0,0,311,327Zm-4,55a12,12,0,0,1,8-11v18q0,2,0,5A12,12,0,0,1,307,383Zm110,47a55,55,0,0,1-39,16h0a55,55,0,0,1-39-17,56,56,0,0,1-16-40V331l5,2a64,64,0,0,0,82-9v9a28,28,0,0,0,24,27v30A55,55,0,0,1,416,429Zm23-35c0-1,0-3,0-4V371a12,12,0,0,1,0,22Z"/><rect class="cls-2" x="346" y="360" width="8" height="17.13" rx="4" ry="4"/><rect class="cls-2" x="397" y="360" width="8" height="17.13" rx="4" ry="4"/><path class="cls-3" d="M481,374V476l5-4H385c-6,0-6,9,0,9H485a5,5,0,0,0,5-4V374c0-6-9-6-9,0Z"/><path class="cls-3" d="M121,241V124l-4,5H241c6,0,6-9,0-9H116a5,5,0,0,0-4,5V241c0,6,9,6,9,0Z"/><path class="cls-3" d="M112,374V476a5,5,0,0,0,5,5H216c6,0,6-9,0-9H116l5,5V374c0-6-9-6-9,0Z"/><path class="cls-3" d="M490,241V124a5,5,0,0,0-4-4H360c-6,0-6,9,0,9H485l-4-4V241c0,6,9,6,9,0Z"/></svg>